<?xml version="1.0" encoding="utf-8"?>
<svg viewBox="0 0 16 16" xmlns="http://www.w3.org/2000/svg">
  <defs>
    <style>
		.favicon-theme-color {
		fill: #014272;
		}
		@media (prefers-color-scheme: dark) {
		.favicon-theme-color {
		fill: #CFE3F2;
		}
		}
	</style>
  </defs>
  <path class="favicon-theme-color" d="M4.40112 1.27734C4.12473 1.27734 3.90068 1.5014 3.90068 1.77779C3.90068 2.05418 4.12473 2.27823 4.40112 2.27823C4.67751 2.27823 4.90157 2.05418 4.90157 1.77779C4.90157 1.5014 4.67751 1.27734 4.40112 1.27734Z"/>
  <path class="favicon-theme-color" d="M6.1789 1.27734C5.90251 1.27734 5.67845 1.5014 5.67845 1.77779C5.67845 2.05418 5.90251 2.27823 6.1789 2.27823C6.45529 2.27823 6.67934 2.05418 6.67934 1.77779C6.67934 1.5014 6.45529 1.27734 6.1789 1.27734Z"/>
  <path class="favicon-theme-color" d="M7.95668 1.27734C7.68029 1.27734 7.45623 1.5014 7.45623 1.77779C7.45623 2.05418 7.68029 2.27823 7.95668 2.27823C8.23306 2.27823 8.45712 2.05418 8.45712 1.77779C8.45712 1.5014 8.23306 1.27734 7.95668 1.27734Z"/>
  <path class="favicon-theme-color" d="M9.73445 1.27734C9.45807 1.27734 9.23401 1.5014 9.23401 1.77779C9.23401 2.05418 9.45807 2.27823 9.73445 2.27823C10.0108 2.27823 10.2349 2.05418 10.2349 1.77779C10.2349 1.5014 10.0108 1.27734 9.73445 1.27734Z"/>
  <path class="favicon-theme-color" d="M11.5122 1.27734C11.2358 1.27734 11.0118 1.5014 11.0118 1.77779C11.0118 2.05418 11.2358 2.27823 11.5122 2.27823C11.7886 2.27823 12.0127 2.05418 12.0127 1.77779C12.0127 1.5014 11.7886 1.27734 11.5122 1.27734Z"/>
  <path class="favicon-theme-color" d="M3.51223 2.8329C3.23584 2.8329 3.01179 3.05696 3.01179 3.33334C3.01179 3.60973 3.23584 3.83379 3.51223 3.83379C3.78862 3.83379 4.01268 3.60973 4.01268 3.33334C4.01268 3.05696 3.78862 2.8329 3.51223 2.8329Z"/>
  <path class="favicon-theme-color" d="M5.29001 2.8329C5.01362 2.8329 4.78957 3.05696 4.78957 3.33334C4.78957 3.60973 5.01362 3.83379 5.29001 3.83379C5.5664 3.83379 5.79045 3.60973 5.79045 3.33334C5.79045 3.05696 5.5664 2.8329 5.29001 2.8329Z"/>
  <path class="favicon-theme-color" d="M12.4444 2.8329C12.1681 2.8329 11.944 3.05696 11.944 3.33334C11.944 3.60973 12.1681 3.83379 12.4444 3.83379C12.7208 3.83379 12.9449 3.60973 12.9449 3.33334C12.9449 3.05696 12.7208 2.8329 12.4444 2.8329Z"/>
  <path class="favicon-theme-color" d="M2.62334 4.38845C2.34696 4.38845 2.1229 4.61251 2.1229 4.8889C2.1229 5.16529 2.34696 5.38934 2.62334 5.38934C2.89973 5.38934 3.12379 5.16529 3.12379 4.8889C3.12379 4.61251 2.89973 4.38845 2.62334 4.38845Z"/>
  <path class="favicon-theme-color" d="M6.1789 4.38845C5.90251 4.38845 5.67845 4.61251 5.67845 4.8889C5.67845 5.16529 5.90251 5.38934 6.1789 5.38934C6.45529 5.38934 6.67934 5.16529 6.67934 4.8889C6.67934 4.61251 6.45529 4.38845 6.1789 4.38845Z"/>
  <path class="favicon-theme-color" d="M13.3333 4.38845C13.0569 4.38845 12.8329 4.61251 12.8329 4.8889C12.8329 5.16529 13.0569 5.38934 13.3333 5.38934C13.6097 5.38934 13.8338 5.16529 13.8338 4.8889C13.8338 4.61251 13.6097 4.38845 13.3333 4.38845Z"/>
  <path class="favicon-theme-color" d="M1.73445 5.94401C1.45807 5.94401 1.23401 6.16807 1.23401 6.44446C1.23401 6.72084 1.45807 6.9449 1.73445 6.9449C2.01084 6.9449 2.2349 6.72084 2.2349 6.44446C2.2349 6.16807 2.01084 5.94401 1.73445 5.94401Z"/>
  <path class="favicon-theme-color" d="M7.06779 5.94401C6.7914 5.94401 6.56734 6.16807 6.56734 6.44446C6.56734 6.72084 6.7914 6.9449 7.06779 6.9449C7.34418 6.9449 7.56823 6.72084 7.56823 6.44446C7.56823 6.16807 7.34418 5.94401 7.06779 5.94401Z"/>
  <path class="favicon-theme-color" d="M14.2222 5.94401C13.9458 5.94401 13.7218 6.16807 13.7218 6.44446C13.7218 6.72084 13.9458 6.9449 14.2222 6.9449C14.4986 6.9449 14.7227 6.72084 14.7227 6.44446C14.7227 6.16807 14.4986 5.94401 14.2222 5.94401Z"/>
  <path class="favicon-theme-color" d="M1.32339 7.75172C1.18626 7.51175 0.880563 7.42838 0.640592 7.5655C0.40062 7.70263 0.317247 8.00833 0.454374 8.2483L3.754 14.0226C3.8121 14.1243 3.88195 14.2169 3.9613 14.2989C4.14039 14.4842 4.36781 14.6162 4.61753 14.6798C4.72817 14.7079 4.84318 14.7227 4.96028 14.7227H11.5555C11.8319 14.7227 12.056 14.4986 12.056 14.2222C12.056 13.9458 11.8319 13.7218 11.5555 13.7218H5.30679L6.51263 11.6116H13.4444C13.7208 11.6116 13.9449 11.3875 13.9449 11.1111C13.9449 10.8347 13.7208 10.6107 13.4444 10.6107H7.08457L8.17857 8.69618C8.24773 8.57515 8.37644 8.50045 8.51584 8.50045H15.2222C15.4986 8.50045 15.7227 8.2764 15.7227 8.00001C15.7227 7.72362 15.4986 7.49957 15.2222 7.49957H8.51584C8.01726 7.49957 7.55692 7.76672 7.30956 8.1996L4.44444 13.2136L1.32339 7.75172Z"/>
  <text style="fill: rgb(87, 255, 0); font-family: Arial, sans-serif; font-size: 1px; white-space: pre;" transform="matrix(2.2573390007019043, 0, 0, 1.9318790435791016, -17.029781341552734, -13.343790054321287)" x="13.155" y="14.568">++</text>
</svg>